<svg width="50" height="50" viewBox="0 0 50 50" fill="none" xmlns="http://www.w3.org/2000/svg">
<path d="M20.0014 5.69337C20.2455 5.98993 20.395 6.35286 20.4306 6.73527C20.4663 7.11769 20.3864 7.502 20.2014 7.83857C18.7559 10.4925 18.001 13.4673 18.0062 16.4894C18.0062 26.5428 26.202 34.6836 36.3029 34.6836C37.6205 34.6836 38.9032 34.5461 40.1358 34.2835C40.5136 34.2017 40.9072 34.233 41.2674 34.3735C41.6276 34.514 41.9384 34.7575 42.161 35.0736C42.396 35.4023 42.5158 35.7994 42.5017 36.2031C42.4877 36.6069 42.3407 36.9947 42.0835 37.3063C40.1225 39.7151 37.6487 41.656 34.8424 42.9873C32.0361 44.3187 28.968 45.007 25.8619 45.002C14.3359 45.002 5 35.7162 5 24.2751C5 15.6643 10.2855 8.27861 17.8112 5.14832C18.1861 4.98988 18.6022 4.95737 18.9972 5.05565C19.3921 5.15393 19.7445 5.37771 20.0014 5.69337Z" fill="#CECECE"/>
<path d="M31.9876 12.8707C32.0235 12.7624 32.0925 12.6682 32.185 12.6014C32.2775 12.5347 32.3886 12.4987 32.5027 12.4987C32.6167 12.4987 32.7279 12.5347 32.8203 12.6014C32.9128 12.6682 32.9819 12.7624 33.0177 12.8707L33.9853 15.776C34.4178 17.0711 35.4329 18.0862 36.7281 18.5187L39.6333 19.4863C39.7416 19.5222 39.8358 19.5912 39.9026 19.6837C39.9694 19.7762 40.0053 19.8873 40.0053 20.0014C40.0053 20.1154 39.9694 20.2266 39.9026 20.319C39.8358 20.4115 39.7416 20.4806 39.6333 20.5164L36.7281 21.484C36.0893 21.6968 35.5089 22.0555 35.0328 22.5316C34.5568 23.0076 34.1981 23.588 33.9853 24.2268L33.0177 27.132C32.9819 27.2403 32.9128 27.3345 32.8203 27.4013C32.7279 27.4681 32.6167 27.504 32.5027 27.504C32.3886 27.504 32.2775 27.4681 32.185 27.4013C32.0925 27.3345 32.0235 27.2403 31.9876 27.132L31.02 24.2268C30.8072 23.588 30.4486 23.0076 29.9725 22.5316C29.4964 22.0555 28.916 21.6968 28.2773 21.484L25.372 20.5164C25.2637 20.4806 25.1695 20.4115 25.1027 20.319C25.0359 20.2266 25 20.1154 25 20.0014C25 19.8873 25.0359 19.7762 25.1027 19.6837C25.1695 19.5912 25.2637 19.5222 25.372 19.4863L28.2773 18.5187C28.916 18.3059 29.4964 17.9473 29.9725 17.4712C30.4486 16.9951 30.8072 16.4147 31.02 15.776L31.9876 12.8707V12.8707ZM39.6608 5.2475C39.6855 5.17631 39.7318 5.11458 39.7932 5.07089C39.8545 5.0272 39.928 5.00372 40.0034 5.00372C40.0787 5.00372 40.1522 5.0272 40.2136 5.07089C40.275 5.11458 40.3212 5.17631 40.3459 5.2475L40.991 7.18268C41.2785 8.04776 41.956 8.72533 42.8211 9.01285L44.7563 9.65791C44.8275 9.6826 44.8892 9.72885 44.9329 9.79023C44.9766 9.85162 45.0001 9.9251 45.0001 10.0004C45.0001 10.0758 44.9766 10.1493 44.9329 10.2107C44.8892 10.272 44.8275 10.3183 44.7563 10.343L42.8211 10.988C42.3948 11.1299 42.0074 11.3691 41.6897 11.6868C41.372 12.0045 41.1328 12.3919 40.991 12.8182L40.3459 14.7534C40.3212 14.8246 40.275 14.8863 40.2136 14.93C40.1522 14.9737 40.0787 14.9972 40.0034 14.9972C39.928 14.9972 39.8545 14.9737 39.7932 14.93C39.7318 14.8863 39.6855 14.8246 39.6608 14.7534L39.0158 12.8182C38.874 12.3919 38.6347 12.0045 38.317 11.6868C37.9993 11.3691 37.6119 11.1299 37.1856 10.988L35.2504 10.343C35.1792 10.3183 35.1175 10.272 35.0738 10.2107C35.0301 10.1493 35.0066 10.0758 35.0066 10.0004C35.0066 9.9251 35.0301 9.85162 35.0738 9.79023C35.1175 9.72885 35.1792 9.6826 35.2504 9.65791L37.1856 9.01285C38.0507 8.72533 38.7282 8.04776 39.0158 7.18268L39.6608 5.25V5.2475Z" fill="#CECECE"/>
</svg>
