<svg width="50" height="50" viewBox="0 0 50 50" fill="none" xmlns="http://www.w3.org/2000/svg">
<g clip-path="url(#clip0_27_8)">
<path d="M12.4875 25C12.4875 31.9025 18.1025 37.5175 25.005 37.5175C31.9075 37.5175 37.5225 31.9025 37.5225 25C37.5225 18.0975 31.9075 12.4825 25.005 12.4825C18.1025 12.4825 12.4875 18.0975 12.4875 25ZM22.5 42.5H27.5V50H22.5V42.5ZM22.5 0H27.5V7.5H22.5V0ZM0 22.5H7.5V27.5H0V22.5ZM42.5 22.5H50V27.5H42.5V22.5ZM9.0925 44.445L5.5575 40.91L10.86 35.6075L14.395 39.1425L9.0925 44.445ZM35.605 10.86L40.91 5.555L44.445 9.09L39.14 14.395L35.605 10.86ZM10.86 14.3975L5.5575 9.0925L9.095 5.5575L14.395 10.8625L10.86 14.3975ZM44.445 40.91L40.91 44.445L35.605 39.14L39.14 35.605L44.445 40.91Z" fill="#BFB800"/>
</g>
<defs>
<clipPath id="clip0_27_8">
<rect width="50" height="50" fill="white"/>
</clipPath>
</defs>
</svg>
